<svg preserveAspectRatio="none" overflow="visible" style="display: block;" width="254" height="195.102" viewBox="0 0 254 195.102" fill="none" xmlns="http://www.w3.org/2000/svg">
<g id="crane_building_3d_icon 1">
<path id="Vector" opacity="0.55" d="M125.159 175.96C184.117 175.96 231.913 171.674 231.913 166.389C231.913 161.103 184.117 156.818 125.159 156.818C66.2005 156.818 18.4053 161.103 18.4053 166.389C18.4053 171.674 66.2005 175.96 125.159 175.96Z" fill="#03050E"/>
<g id="Group">
<path id="Vector_2" d="M36.8113 129.577H69.9418V162.707H36.8113V129.577Z" fill="#EDEFF7"/>
<path id="Vector_3" d="M69.9421 129.577L75.0957 126.632V159.762L69.9421 162.707V129.577Z" fill="#CDD1E4"/>
<path id="Vector_4" d="M36.8113 129.577L53.3765 115.589L69.9418 129.577H36.8113Z" fill="white"/>
<path id="Vector_5" d="M69.9418 129.577L75.0954 126.632L58.5302 112.644L53.3765 115.589L69.9418 129.577Z" fill="#DCDFEE"/>
<path id="Vector_6" d="M50.4316 137.675H44.5417C43.9318 137.675 43.4374 138.17 43.4374 138.78V142.461C43.4374 143.071 43.9318 143.565 44.5417 143.565H50.4316C51.0415 143.565 51.5359 143.071 51.5359 142.461V138.78C51.5359 138.17 51.0415 137.675 50.4316 137.675Z" fill="#C3C7DE"/>
<path id="Vector_7" d="M62.9479 137.675H57.058C56.4481 137.675 55.9537 138.17 55.9537 138.78V142.461C55.9537 143.071 56.4481 143.565 57.058 143.565H62.9479C63.5578 143.565 64.0522 143.071 64.0522 142.461V138.78C64.0522 138.17 63.5578 137.675 62.9479 137.675Z" fill="#C3C7DE"/>
<path id="Vector_8" d="M57.058 148.719H50.4319C49.822 148.719 49.3276 149.213 49.3276 149.823V161.603C49.3276 162.213 49.822 162.707 50.4319 162.707H57.058C57.6679 162.707 58.1624 162.213 58.1624 161.603V149.823C58.1624 149.213 57.6679 148.719 57.058 148.719Z" fill="#C3C7DE"/>
</g>
<g id="Group_2">
<path id="Vector_9" d="M105.282 108.962H134.731V163.444H105.282V108.962Z" fill="#F3F4FB"/>
<path id="Vector_10" d="M134.731 108.962L141.357 105.281V159.762L134.731 163.444V108.962Z" fill="#D2D5E7"/>
<path id="Vector_11" d="M105.281 108.962L111.907 105.281H141.357L134.731 108.962H105.281Z" fill="white"/>
<path id="Vector_12" d="M115.957 114.852H111.539C110.93 114.852 110.435 115.347 110.435 115.957V118.901C110.435 119.511 110.93 120.006 111.539 120.006H115.957C116.567 120.006 117.061 119.511 117.061 118.901V115.957C117.061 115.347 116.567 114.852 115.957 114.852Z" fill="#C3C7DE"/>
<path id="Vector_13" d="M127.737 114.852H123.32C122.71 114.852 122.215 115.347 122.215 115.957V118.901C122.215 119.511 122.71 120.006 123.32 120.006H127.737C128.347 120.006 128.841 119.511 128.841 118.901V115.957C128.841 115.347 128.347 114.852 127.737 114.852Z" fill="#C3C7DE"/>
<path id="Vector_14" d="M115.957 125.159H111.539C110.93 125.159 110.435 125.654 110.435 126.264V129.209C110.435 129.819 110.93 130.313 111.539 130.313H115.957C116.567 130.313 117.061 129.819 117.061 129.209V126.264C117.061 125.654 116.567 125.159 115.957 125.159Z" fill="#C3C7DE"/>
<path id="Vector_15" d="M127.737 125.159H123.32C122.71 125.159 122.215 125.654 122.215 126.264V129.209C122.215 129.819 122.71 130.313 123.32 130.313H127.737C128.347 130.313 128.841 129.819 128.841 129.209V126.264C128.841 125.654 128.347 125.159 127.737 125.159Z" fill="#C3C7DE"/>
<path id="Vector_16" d="M115.957 135.467H111.539C110.93 135.467 110.435 135.961 110.435 136.571V139.516C110.435 140.126 110.93 140.62 111.539 140.62H115.957C116.567 140.62 117.061 140.126 117.061 139.516V136.571C117.061 135.961 116.567 135.467 115.957 135.467Z" fill="#C3C7DE"/>
<path id="Vector_17" d="M127.737 135.467H123.32C122.71 135.467 122.215 135.961 122.215 136.571V139.516C122.215 140.126 122.71 140.62 123.32 140.62H127.737C128.347 140.62 128.841 140.126 128.841 139.516V136.571C128.841 135.961 128.347 135.467 127.737 135.467Z" fill="#C3C7DE"/>
<path id="Vector_18" d="M115.957 145.774H111.539C110.93 145.774 110.435 146.268 110.435 146.878V149.823C110.435 150.433 110.93 150.928 111.539 150.928H115.957C116.567 150.928 117.061 150.433 117.061 149.823V146.878C117.061 146.268 116.567 145.774 115.957 145.774Z" fill="#C3C7DE"/>
<path id="Vector_19" d="M127.737 145.774H123.32C122.71 145.774 122.215 146.268 122.215 146.878V149.823C122.215 150.433 122.71 150.928 123.32 150.928H127.737C128.347 150.928 128.841 150.433 128.841 149.823V146.878C128.841 146.268 128.347 145.774 127.737 145.774Z" fill="#C3C7DE"/>
</g>
<g id="Group_3">
<path id="Vector_20" d="M171.542 94.974H212.035V163.444H171.542V94.974Z" fill="#F6F7FC"/>
<path id="Vector_21" d="M212.035 94.974L220.133 90.5566V159.026L212.035 163.444V94.974Z" fill="#D6D9E9"/>
<path id="Vector_22" d="M171.542 94.974L179.641 90.5566H220.133L212.035 94.974H171.542Z" fill="white"/>
<path id="Vector_23" d="M183.69 101.6H178.537C177.927 101.6 177.432 102.095 177.432 102.704V106.386C177.432 106.996 177.927 107.49 178.537 107.49H183.69C184.3 107.49 184.795 106.996 184.795 106.386V102.704C184.795 102.095 184.3 101.6 183.69 101.6Z" fill="#C3C7DE"/>
<path id="Vector_24" d="M194.734 101.6H189.58C188.97 101.6 188.476 102.095 188.476 102.704V106.386C188.476 106.996 188.97 107.49 189.58 107.49H194.734C195.344 107.49 195.838 106.996 195.838 106.386V102.704C195.838 102.095 195.344 101.6 194.734 101.6Z" fill="#C3C7DE"/>
<path id="Vector_25" d="M205.777 101.6H200.623C200.013 101.6 199.519 102.095 199.519 102.704V106.386C199.519 106.996 200.013 107.49 200.623 107.49H205.777C206.387 107.49 206.881 106.996 206.881 106.386V102.704C206.881 102.095 206.387 101.6 205.777 101.6Z" fill="#C3C7DE"/>
<path id="Vector_26" d="M183.69 113.38H178.537C177.927 113.38 177.432 113.874 177.432 114.484V118.165C177.432 118.775 177.927 119.27 178.537 119.27H183.69C184.3 119.27 184.795 118.775 184.795 118.165V114.484C184.795 113.874 184.3 113.38 183.69 113.38Z" fill="#C3C7DE"/>
<path id="Vector_27" d="M194.734 113.38H189.58C188.97 113.38 188.476 113.874 188.476 114.484V118.165C188.476 118.775 188.97 119.27 189.58 119.27H194.734C195.344 119.27 195.838 118.775 195.838 118.165V114.484C195.838 113.874 195.344 113.38 194.734 113.38Z" fill="#C3C7DE"/>
<path id="Vector_28" d="M205.777 113.38H200.623C200.013 113.38 199.519 113.874 199.519 114.484V118.165C199.519 118.775 200.013 119.27 200.623 119.27H205.777C206.387 119.27 206.881 118.775 206.881 118.165V114.484C206.881 113.874 206.387 113.38 205.777 113.38Z" fill="#C3C7DE"/>
<path id="Vector_29" d="M183.69 125.16H178.537C177.927 125.16 177.432 125.654 177.432 126.264V129.945C177.432 130.555 177.927 131.049 178.537 131.049H183.69C184.3 131.049 184.795 130.555 184.795 129.945V126.264C184.795 125.654 184.3 125.16 183.69 125.16Z" fill="#C3C7DE"/>
<path id="Vector_30" d="M194.734 125.16H189.58C188.97 125.16 188.476 125.654 188.476 126.264V129.945C188.476 130.555 188.97 131.049 189.58 131.049H194.734C195.344 131.049 195.838 130.555 195.838 129.945V126.264C195.838 125.654 195.344 125.16 194.734 125.16Z" fill="#C3C7DE"/>
<path id="Vector_31" d="M205.777 125.16H200.623C200.013 125.16 199.519 125.654 199.519 126.264V129.945C199.519 130.555 200.013 131.049 200.623 131.049H205.777C206.387 131.049 206.881 130.555 206.881 129.945V126.264C206.881 125.654 206.387 125.16 205.777 125.16Z" fill="#C3C7DE"/>
<path id="Vector_32" d="M183.69 136.939H178.537C177.927 136.939 177.432 137.434 177.432 138.044V141.725C177.432 142.335 177.927 142.829 178.537 142.829H183.69C184.3 142.829 184.795 142.335 184.795 141.725V138.044C184.795 137.434 184.3 136.939 183.69 136.939Z" fill="#C3C7DE"/>
<path id="Vector_33" d="M194.734 136.939H189.58C188.97 136.939 188.476 137.434 188.476 138.044V141.725C188.476 142.335 188.97 142.829 189.58 142.829H194.734C195.344 142.829 195.838 142.335 195.838 141.725V138.044C195.838 137.434 195.344 136.939 194.734 136.939Z" fill="#C3C7DE"/>
<path id="Vector_34" d="M205.777 136.939H200.623C200.013 136.939 199.519 137.434 199.519 138.044V141.725C199.519 142.335 200.013 142.829 200.623 142.829H205.777C206.387 142.829 206.881 142.335 206.881 141.725V138.044C206.881 137.434 206.387 136.939 205.777 136.939Z" fill="#C3C7DE"/>
</g>
<g id="Group_4">
<path id="Vector_35" d="M72.1501 164.916H94.9733L101.599 160.499H78.7762L72.1501 164.916Z" fill="#443CC7"/>
<path id="Vector_36" d="M92.7646 161.971H74.3588C73.139 161.971 72.1501 162.96 72.1501 164.18V164.916C72.1501 166.136 73.139 167.125 74.3588 167.125H92.7646C93.9845 167.125 94.9733 166.136 94.9733 164.916V164.18C94.9733 162.96 93.9845 161.971 92.7646 161.971Z" fill="#5B52FF"/>
<path id="Vector_37" d="M89.0838 55.2175H79.5128V162.707H89.0838V55.2175Z" fill="#5B52FF"/>
<path id="Vector_38" d="M89.0838 55.2174L93.5012 52.6406V160.131L89.0838 162.707V55.2174Z" fill="#4038B8"/>
<path id="Vector_39" d="M80.2487 64.7885L88.3472 73.6232M88.3472 64.7885L80.2487 73.6232M80.2487 82.458L88.3472 91.2928M88.3472 82.458L80.2487 91.2928M80.2487 100.128L88.3472 108.962M88.3472 100.128L80.2487 108.962M80.2487 117.797L88.3472 126.632M88.3472 117.797L80.2487 126.632M80.2487 135.467L88.3472 144.302M88.3472 135.467L80.2487 144.302M80.2487 153.136L88.3472 161.235M88.3472 153.136L80.2487 161.235" stroke="#8B85FF" stroke-width="0.736232" stroke-linecap="round"/>
<path id="Vector_40" d="M89.82 47.1189H78.7765C77.5567 47.1189 76.5678 48.1077 76.5678 49.3276V53.0087C76.5678 54.2285 77.5567 55.2174 78.7765 55.2174H89.82C91.0398 55.2174 92.0287 54.2285 92.0287 53.0087V49.3276C92.0287 48.1077 91.0398 47.1189 89.82 47.1189Z" fill="#6E66FF"/>
<path id="Vector_41" d="M92.029 47.1189L96.4464 44.5421V52.6406L92.029 55.2174V47.1189Z" fill="#4A42CF"/>
<path id="Vector_42" d="M174.855 37.5478H57.0576C56.0411 37.5478 55.2171 38.3719 55.2171 39.3884V41.229C55.2171 42.2455 56.0411 43.0696 57.0576 43.0696H174.855C175.871 43.0696 176.695 42.2455 176.695 41.229V39.3884C176.695 38.3719 175.871 37.5478 174.855 37.5478Z" fill="#5B52FF"/>
<path id="Vector_43" d="M176.696 37.5478L180.377 35.3391V40.8609L176.696 43.0696V37.5478Z" fill="#4038B8"/>
<path id="Vector_44" d="M59.6348 38.2841L65.5246 42.3334L71.4145 38.2841L77.3043 42.3334L83.1942 38.2841L89.0841 42.3334L94.9739 38.2841L100.864 42.3334L106.754 38.2841L112.644 42.3334L118.533 38.2841L124.423 42.3334L130.313 38.2841L136.203 42.3334L142.093 38.2841L147.983 42.3334L153.873 38.2841L159.762 42.3334L165.652 38.2841L171.542 42.3334" stroke="#8B85FF" stroke-width="0.736232" stroke-linecap="round"/>
<path id="Vector_45" d="M84.2979 22.087L55.953 37.5479H61.8429L84.2979 25.7681L167.86 37.5479H173.75L84.2979 22.087Z" fill="#6E66FF"/>
<path id="Vector_46" d="M84.2983 22.8232V47.1189" stroke="#6E66FF" stroke-width="2.2087" stroke-linecap="round"/>
<path id="Vector_47" d="M84.298 24.6638C85.7211 24.6638 86.8748 23.5101 86.8748 22.087C86.8748 20.6639 85.7211 19.5102 84.298 19.5102C82.8748 19.5102 81.7211 20.6639 81.7211 22.087C81.7211 23.5101 82.8748 24.6638 84.298 24.6638Z" fill="#7B74FF"/>
<path id="Vector_48" d="M65.5243 35.3391H57.4258C56.2059 35.3391 55.2171 36.328 55.2171 37.5478V44.1739C55.2171 45.3938 56.2059 46.3826 57.4258 46.3826H65.5243C66.7442 46.3826 67.733 45.3938 67.733 44.1739V37.5478C67.733 36.328 66.7442 35.3391 65.5243 35.3391Z" fill="#4A42CF"/>
<path id="Vector_49" d="M154.609 43.0696V72.1508" stroke="#B9B4FF" stroke-width="0.920291"/>
<path id="Vector_50" d="M156.817 70.6783H152.4C151.586 70.6783 150.927 71.3376 150.927 72.1508V73.6232C150.927 74.4365 151.586 75.0957 152.4 75.0957H156.817C157.63 75.0957 158.289 74.4365 158.289 73.6232V72.1508C158.289 71.3376 157.63 70.6783 156.817 70.6783Z" fill="#6E66FF"/>
<path id="Vector_51" d="M154.608 75.0957V78.0406C155.336 78.0406 156.048 78.2565 156.653 78.661C157.259 79.0655 157.731 79.6404 158.009 80.3131C158.288 80.9857 158.361 81.7259 158.219 82.44C158.077 83.154 157.726 83.81 157.211 84.3248C156.696 84.8396 156.04 85.1902 155.326 85.3322C154.612 85.4743 153.872 85.4014 153.199 85.1228C152.527 84.8441 151.952 84.3723 151.547 83.767C151.143 83.1616 150.927 82.4499 150.927 81.7218" stroke="#5B52FF" stroke-width="2.2087" stroke-linecap="round"/>
</g>
<g id="Group_5">
<path id="Vector_52" d="M141.357 88.3479H167.861V110.435H141.357V88.3479Z" fill="white"/>
<path id="Vector_53" d="M167.861 88.3479L173.014 85.403V107.49L167.861 110.435V88.3479Z" fill="#D9DCEC"/>
<path id="Vector_54" d="M141.356 88.3479L146.51 85.403H173.014L167.861 88.3479H141.356Z" fill="#F0F1F9"/>
<path id="Vector_55" d="M151.296 93.5016H147.615C147.005 93.5016 146.51 93.996 146.51 94.6059V97.1827C146.51 97.7926 147.005 98.2871 147.615 98.2871H151.296C151.906 98.2871 152.4 97.7926 152.4 97.1827V94.6059C152.4 93.996 151.906 93.5016 151.296 93.5016Z" fill="#C9CDE2"/>
<path id="Vector_56" d="M161.603 93.5016H157.922C157.312 93.5016 156.818 93.996 156.818 94.6059V97.1827C156.818 97.7926 157.312 98.2871 157.922 98.2871H161.603C162.213 98.2871 162.708 97.7926 162.708 97.1827V94.6059C162.708 93.996 162.213 93.5016 161.603 93.5016Z" fill="#C9CDE2"/>
<path id="Vector_57" d="M151.296 101.6H147.615C147.005 101.6 146.51 102.095 146.51 102.704V105.281C146.51 105.891 147.005 106.386 147.615 106.386H151.296C151.906 106.386 152.4 105.891 152.4 105.281V102.704C152.4 102.095 151.906 101.6 151.296 101.6Z" fill="#C9CDE2"/>
<path id="Vector_58" d="M161.603 101.6H157.922C157.312 101.6 156.818 102.095 156.818 102.704V105.281C156.818 105.891 157.312 106.386 157.922 106.386H161.603C162.213 106.386 162.708 105.891 162.708 105.281V102.704C162.708 102.095 162.213 101.6 161.603 101.6Z" fill="#C9CDE2"/>
</g>
<g id="Group_6">
<path id="Vector_59" opacity="0.5" d="M228.968 164.916C235.881 164.916 241.484 163.598 241.484 161.971C241.484 160.345 235.881 159.026 228.968 159.026C222.056 159.026 216.453 160.345 216.453 161.971C216.453 163.598 222.056 164.916 228.968 164.916Z" fill="#03050E"/>
<path id="Vector_60" d="M236.699 153.873H221.238C220.222 153.873 219.397 154.697 219.397 155.713C219.397 156.73 220.222 157.554 221.238 157.554H236.699C237.715 157.554 238.539 156.73 238.539 155.713C238.539 154.697 237.715 153.873 236.699 153.873Z" fill="#8E92AC"/>
<path id="Vector_61" d="M238.907 150.191H223.446C222.43 150.191 221.606 151.016 221.606 152.032C221.606 153.049 222.43 153.873 223.446 153.873H238.907C239.924 153.873 240.748 153.049 240.748 152.032C240.748 151.016 239.924 150.191 238.907 150.191Z" fill="#A6AAC2"/>
<path id="Vector_62" d="M236.699 157.554H221.238C220.222 157.554 219.397 158.378 219.397 159.394C219.397 160.411 220.222 161.235 221.238 161.235H236.699C237.715 161.235 238.539 160.411 238.539 159.394C238.539 158.378 237.715 157.554 236.699 157.554Z" fill="#787C96"/>
<path id="Vector_63" d="M238.539 157.554C239.556 157.554 240.38 156.73 240.38 155.713C240.38 154.697 239.556 153.873 238.539 153.873C237.523 153.873 236.699 154.697 236.699 155.713C236.699 156.73 237.523 157.554 238.539 157.554Z" fill="#4A4E66"/>
<path id="Vector_64" d="M240.748 153.873C241.765 153.873 242.589 153.049 242.589 152.032C242.589 151.016 241.765 150.191 240.748 150.191C239.732 150.191 238.908 151.016 238.908 152.032C238.908 153.049 239.732 153.873 240.748 153.873Z" fill="#4A4E66"/>
<path id="Vector_65" d="M238.539 161.235C239.556 161.235 240.38 160.411 240.38 159.394C240.38 158.378 239.556 157.554 238.539 157.554C237.523 157.554 236.699 158.378 236.699 159.394C236.699 160.411 237.523 161.235 238.539 161.235Z" fill="#4A4E66"/>
</g>
</g>
</svg>
