<svg preserveAspectRatio="none" overflow="visible" style="display: block;" width="113.273" height="28" viewBox="0 0 113.273 28" fill="none" xmlns="http://www.w3.org/2000/svg">
<g id="Frame">
<path id="Vector" fill-rule="evenodd" clip-rule="evenodd" d="M9.62016 5.26979L9.0619 7.17671H3.69494L4.23957 5.26979H9.62016ZM8.86917e-05 11.1892H5.69085L5.68899 11.196H5.60777L4.01469 16.7415C3.32027 19.1067 4.38914 20.8654 6.43153 20.8654C7.97014 20.8654 9.35215 19.895 11.4762 17.3479L11.4218 17.5569C10.8363 19.6592 11.6329 20.8654 13.6004 20.8654C14.5619 20.8654 15.7058 20.4926 17.9679 19.2796L16.0723 25.8116H18.5436L20.7767 18.1233C20.9886 19.0028 21.4491 19.8044 22.1042 20.4344L22.3288 20.6299L22.3833 20.6771L22.5127 20.7714C23.2734 21.3 24.184 21.576 25.1133 21.5598C28.4492 21.5598 30.975 18.7768 30.975 15.0978C30.975 11.9578 29.1437 9.74092 26.3524 9.74092C25.656 9.7542 24.9706 9.91503 24.3423 10.2126C23.714 10.5101 23.1575 10.9375 22.7101 11.4659L22.8462 11.0077L23.3568 9.27598H18.1964L17.6382 11.1964H20.3137L18.685 16.8084C16.0671 18.2797 14.9643 18.763 14.3832 18.763C13.825 18.763 13.6343 18.4463 13.825 17.8196L16.2759 9.27559H13.825L11.9528 15.6903C9.85595 17.9207 8.7939 18.763 7.67739 18.763C6.56089 18.763 6.16602 17.9006 6.56088 16.5057L8.58144 9.35292L8.60344 9.27559H6.22001H0.544728L8.86917e-05 11.1892ZM21.9476 16.2703C21.9476 18.3254 23.1867 19.5248 24.9023 19.5248C27.0468 19.5248 28.6399 17.5909 28.6399 15.0708C28.6399 13.0628 27.4961 11.7691 25.7601 11.7691C23.5883 11.7691 21.9476 13.8916 21.9476 16.2703ZM45.6789 12.0593H49.042V10.1254H45.6789V6.23745H45.6312L43.2961 8.02981V10.1254H41.3627V12.0593H43.2961V18.0429C43.2961 18.7975 43.2961 21.5804 46.3937 21.5804C47.27 21.6123 48.135 21.3771 48.8719 20.9066V19.1411H48.8242C48.3126 19.4234 47.7413 19.5826 47.1563 19.6061C45.9649 19.6061 45.6789 18.7638 45.6789 17.1332V12.0593ZM32.1259 18.3659V20.3874C33.3878 21.1757 34.8477 21.5982 36.34 21.607C38.7024 21.607 40.5609 20.4008 40.5609 18.1637C40.5609 15.8904 38.4965 15.2402 36.7777 14.6988C35.5519 14.3126 34.5019 13.982 34.5019 13.1572C34.5019 12.3554 35.2916 11.8096 36.5987 11.8096C37.783 11.8113 38.9365 12.184 39.8938 12.8742H39.9415V10.8528C38.906 10.2129 37.7104 9.87213 36.4898 9.86899C33.9708 9.86899 32.3029 11.2166 32.3029 13.3122C32.3029 15.4613 34.2295 16.0783 35.9039 16.6146C37.1903 17.0266 38.3279 17.3909 38.3279 18.3659C38.3279 19.2149 37.4497 19.754 36.0881 19.754C34.6806 19.6997 33.3248 19.2147 32.2075 18.3659H32.1259ZM60.2903 13.6628V21.3309H58.4522L58.2412 19.6127C57.8348 20.258 57.2628 20.7851 56.5835 21.1402C55.9042 21.4954 55.1418 21.6658 54.3742 21.6341C52.2297 21.6341 50.2281 20.4078 50.2281 18.1437C50.2281 15.5226 52.611 14.7005 55.232 14.7005C56.9749 14.7005 57.9552 14.6062 57.9552 13.4943C57.9552 12.3825 56.9476 11.8974 55.3545 11.8974C53.7571 11.8896 52.2155 12.4792 51.0383 13.5483H50.9906L51.0655 11.4257C52.341 10.4388 53.8999 9.87734 55.518 9.82199C57.8803 9.79503 60.2903 10.7653 60.2903 13.6628ZM58.0777 16.8298V15.6506C57.5467 16.3244 56.4779 16.4726 55.0687 16.4726C53.6593 16.4726 52.5701 16.9915 52.5701 18.1235C52.5701 19.2556 53.7343 19.7744 54.878 19.7744C55.286 19.8 55.6951 19.7431 56.0802 19.607C56.4653 19.471 56.8183 19.2588 57.1178 18.9832C57.4172 18.7076 57.6568 18.3746 57.8218 18.0044C57.9869 17.6341 58.0739 17.2344 58.0777 16.8298ZM73.4151 10.1257H71.5837L71.3182 12.0394C70.9235 11.3395 70.3403 10.7618 69.6336 10.3704C68.9268 9.97906 68.1243 9.78938 67.3152 9.82251C64.4082 9.82251 61.9505 12.0596 61.9505 15.4827C61.9505 19.0202 64.3332 21.1427 67.1449 21.1427C67.8992 21.1663 68.6479 21.0066 69.3256 20.6776C70.0032 20.3488 70.5892 19.8607 71.0322 19.256V20.1522C71.0322 22.4903 69.6026 23.7639 67.5058 23.7639C65.7734 23.7685 64.0915 23.1859 62.7401 22.1131H62.6924V24.2558C64.1358 25.3174 65.8989 25.8659 67.6964 25.8124C71.0799 25.8124 73.4151 23.7841 73.4151 19.7075V10.1257ZM67.8121 11.8507C69.9566 11.8507 71.1548 13.6161 71.1548 15.4557C71.1548 17.3694 69.9566 19.1146 67.8121 19.1146C65.5042 19.1146 64.4082 17.3424 64.4082 15.4557C64.4082 13.569 65.4293 11.8507 67.8121 11.8507ZM78.883 16.4247C78.1936 16.4247 77.6559 16.5253 77.6559 17.2029C77.6559 18.3567 79.076 19.5508 81.2752 19.5508C82.0782 19.5911 82.8812 19.4728 83.6359 19.203C84.3907 18.9332 85.0815 18.5175 85.6666 17.981H85.715V19.9936C84.4543 21.0641 82.8309 21.6424 81.1579 21.617C77.5868 21.617 75.0982 19.2422 75.0982 15.6934C75.0674 14.9233 75.1972 14.1551 75.4794 13.4351C75.7617 12.715 76.1908 12.0578 76.7407 11.5032C77.2907 10.9486 77.9503 10.508 78.6798 10.2078C79.4092 9.90765 80.1936 9.75415 80.9857 9.75654C82.2543 9.70812 83.4948 10.1288 84.4579 10.9339C85.4209 11.7391 86.035 12.8691 86.1768 14.0968V16.4247H78.883ZM79.2208 14.714H83.7846C83.7996 14.3264 83.7313 13.94 83.5843 13.5795C83.4371 13.219 83.2143 12.8924 82.9303 12.6203C82.6461 12.3482 82.3069 12.1367 81.934 11.9995C81.5612 11.8621 81.1631 11.8019 80.7651 11.8227C78.6968 11.8227 77.6076 13.2315 77.4628 15.2306C77.9672 14.8609 78.5903 14.6778 79.2208 14.714Z" fill="black"/>
<path id="Vector_2" fill-rule="evenodd" clip-rule="evenodd" d="M110.299 2.13439L109.929 3.41709H112.503L112.869 2.13439H110.299Z" fill="black"/>
<path id="Vector_3" fill-rule="evenodd" clip-rule="evenodd" d="M106.759 4.37918L106.386 5.66188H111.86L112.227 4.37918H106.759Z" fill="black"/>
<path id="Vector_4" fill-rule="evenodd" clip-rule="evenodd" d="M103.491 6.62394L103.118 7.90665H111.217L111.583 6.62394H103.491Z" fill="black"/>
<path id="Vector_5" fill-rule="evenodd" clip-rule="evenodd" d="M93.5257 8.86876L93.1526 10.1515H110.572L110.939 8.86876H93.5257Z" fill="black"/>
<path id="Vector_6" fill-rule="evenodd" clip-rule="evenodd" d="M94.5527 11.1135L94.1797 12.3963H109.93L110.297 11.1135H94.5527Z" fill="black"/>
<path id="Vector_7" fill-rule="evenodd" clip-rule="evenodd" d="M95.0767 25.865L95.4498 24.5823H92.8734L92.51 25.865H95.0767Z" fill="black"/>
<path id="Vector_8" fill-rule="evenodd" clip-rule="evenodd" d="M98.6205 23.6202L98.9935 22.3375H93.516L93.1526 23.6202H98.6205Z" fill="black"/>
<path id="Vector_9" fill-rule="evenodd" clip-rule="evenodd" d="M101.889 21.3755L102.262 20.0927H94.1599L93.7964 21.3755H101.889Z" fill="black"/>
<path id="Vector_10" fill-rule="evenodd" clip-rule="evenodd" d="M111.854 19.1307L112.227 17.8479H94.8037L94.4403 19.1307H111.854Z" fill="black"/>
<path id="Vector_11" fill-rule="evenodd" clip-rule="evenodd" d="M110.824 16.8859L111.197 15.6031H95.4463L95.0829 16.8859H110.824Z" fill="black"/>
<path id="Vector_12" fill-rule="evenodd" clip-rule="evenodd" d="M109.332 14.6411L109.705 13.3583H94.9256L94.562 14.6411H109.332Z" fill="black"/>
</g>
</svg>
